# Blender v2.79 (sub 0) OBJ File: ''
# www.blender.org
o Cylinder
v 0.000000 -1.297950 -1.000000
v 0.000000 1.297950 -1.000000
v 0.382683 -1.297950 -0.923880
v 0.382683 1.297950 -0.923880
v 0.707107 -1.297950 -0.707107
v 0.707107 1.297950 -0.707107
v 0.923880 -1.297950 -0.382683
v 0.923880 1.297950 -0.382683
v 1.000000 -1.297950 0.000000
v 1.000000 1.297950 0.000000
v 0.923880 -1.297950 0.382684
v 0.923880 1.297950 0.382684
v 0.707107 -1.297950 0.707107
v 0.707107 1.297950 0.707107
v 0.382683 -1.297950 0.923880
v 0.382683 1.297950 0.923880
v 0.000000 -1.297950 1.000000
v 0.000000 1.297950 1.000000
v -0.382683 -1.297950 0.923880
v -0.382683 1.297950 0.923880
v -0.707107 -1.297950 0.707107
v -0.707107 1.297950 0.707107
v -0.923880 -1.297950 0.382684
v -0.923880 1.297950 0.382684
v -1.000000 -1.297950 -0.000000
v -1.000000 1.297950 -0.000000
v -0.923879 -1.297950 -0.382684
v -0.923879 1.297950 -0.382684
v -0.707107 -1.297950 -0.707107
v -0.707107 1.297950 -0.707107
v -0.382683 -1.297950 -0.923880
v -0.382683 1.297950 -0.923880
v 0.000000 1.326065 -0.831372
v 0.318152 1.326065 -0.768088
v 0.587869 1.326065 -0.587869
v 0.768088 1.326065 -0.318152
v 0.831372 1.326065 0.000000
v 0.768088 1.326065 0.318152
v 0.587869 1.326065 0.587869
v 0.318153 1.326065 0.768088
v 0.000000 1.326065 0.831372
v -0.318152 1.326065 0.768088
v -0.587869 1.326065 0.587869
v -0.768088 1.326065 0.318153
v -0.831372 1.326065 -0.000000
v -0.768088 1.326065 -0.318153
v -0.587869 1.326065 -0.587869
v -0.318152 1.326065 -0.768088
v 0.000000 1.222433 -0.819570
v 0.313636 1.222433 -0.757184
v 0.579524 1.222433 -0.579524
v 0.757184 1.222433 -0.313636
v 0.819570 1.222433 0.000000
v 0.757184 1.222433 0.313636
v 0.579524 1.222433 0.579524
v 0.313636 1.222433 0.757184
v 0.000000 1.222433 0.819570
v -0.313636 1.222433 0.757184
v -0.579524 1.222433 0.579524
v -0.757184 1.222433 0.313636
v -0.819570 1.222433 -0.000000
v -0.757184 1.222433 -0.313636
v -0.579524 1.222433 -0.579524
v -0.313636 1.222433 -0.757185
v 0.000000 -1.400308 -0.944099
v 0.361291 -1.400308 -0.872234
v 0.667579 -1.400308 -0.667579
v 0.872234 -1.400308 -0.361291
v 0.944099 -1.400308 0.000000
v 0.872234 -1.400308 0.361291
v 0.667579 -1.400308 0.667579
v 0.361291 -1.400308 0.872234
v 0.000000 -1.400308 0.944099
v -0.361291 -1.400308 0.872234
v -0.667579 -1.400308 0.667579
v -0.872234 -1.400308 0.361291
v -0.944099 -1.400308 -0.000000
v -0.872234 -1.400308 -0.361291
v -0.667579 -1.400308 -0.667579
v -0.361291 -1.400308 -0.872234
vt 0.250061 0.320409
vt 0.187576 0.000123
vt 0.250061 0.000123
vt 0.187577 0.320409
vt 0.125092 0.000123
vt 0.125092 0.320409
vt 0.062607 0.000123
vt 0.062607 0.320409
vt 0.000123 0.000123
vt 0.999878 0.320408
vt 0.937392 0.000123
vt 0.999877 0.000123
vt 0.937393 0.320408
vt 0.874908 0.000123
vt 0.874908 0.320409
vt 0.812423 0.000123
vt 0.812423 0.320409
vt 0.749938 0.000123
vt 0.749939 0.320409
vt 0.687454 0.000123
vt 0.687454 0.320409
vt 0.624969 0.000123
vt 0.624969 0.320409
vt 0.562485 0.000123
vt 0.562485 0.320409
vt 0.500000 0.000123
vt 0.500000 0.320409
vt 0.437515 0.000123
vt 0.437515 0.320409
vt 0.375030 0.000123
vt 0.330056 0.522292
vt 0.301881 0.460798
vt 0.330082 0.455550
vt 0.375031 0.320409
vt 0.312546 0.000123
vt 0.312546 0.320409
vt 0.330327 0.514791
vt 0.368712 0.565069
vt 0.355576 0.574263
vt 0.047075 0.409222
vt 0.092626 0.380768
vt 0.058386 0.416147
vt 0.130060 0.320654
vt 0.084942 0.369908
vt 0.069168 0.346412
vt 0.026336 0.581810
vt 0.087814 0.606810
vt 0.071380 0.629662
vt 0.304712 0.583836
vt 0.242389 0.607158
vt 0.281103 0.567836
vt 0.257763 0.346364
vt 0.190449 0.348539
vt 0.196386 0.320654
vt 0.131559 0.655889
vt 0.192006 0.628518
vt 0.197241 0.656231
vt 0.002237 0.520591
vt 0.027813 0.460259
vt 0.030135 0.515215
vt 0.280635 0.409332
vt 0.304715 0.393762
vt 0.023401 0.393885
vt 0.137626 0.628419
vt 0.302025 0.516452
vt 0.135394 0.348549
vt 0.050440 0.566960
vt 0.258017 0.630832
vt 0.241495 0.369898
vt 0.000123 0.455380
vt 0.187975 0.361741
vt 0.269461 0.416973
vt 0.234698 0.596217
vt 0.288717 0.514063
vt 0.040956 0.462151
vt 0.288633 0.463633
vt 0.043382 0.512245
vt 0.061706 0.559692
vt 0.234102 0.381187
vt 0.095278 0.595891
vt 0.189173 0.615560
vt 0.140130 0.615446
vt 0.138223 0.361610
vt 0.269750 0.560604
vt 0.465412 0.628248
vt 0.346049 0.453239
vt 0.644132 0.513115
vt 0.462584 0.320719
vt 0.525050 0.336588
vt 0.465806 0.336594
vt 0.659879 0.516149
vt 0.644240 0.454620
vt 0.659979 0.451307
vt 0.402030 0.619536
vt 0.462441 0.644142
vt 0.634917 0.391285
vt 0.579763 0.358974
vt 0.588548 0.345386
vt 0.402012 0.345091
vt 0.368911 0.399521
vt 0.355553 0.390585
vt 0.527711 0.644279
vt 0.579441 0.607295
vt 0.588226 0.620731
vt 0.330327 0.450201
vt 0.345971 0.511445
vt 0.528012 0.320654
vt 0.621398 0.566794
vt 0.410715 0.605959
vt 0.410956 0.358529
vt 0.621631 0.400441
vt 0.524635 0.628433
vt 0.634700 0.575719
vt 0.000123 0.320409
vn 0.1951 0.0000 -0.9808
vn 0.5556 0.0000 -0.8315
vn 0.8315 0.0000 -0.5556
vn 0.9808 0.0000 -0.1951
vn 0.9808 0.0000 0.1951
vn 0.8315 0.0000 0.5556
vn 0.5556 0.0000 0.8315
vn 0.1951 0.0000 0.9808
vn -0.1951 0.0000 0.9808
vn -0.5556 0.0000 0.8315
vn -0.8315 0.0000 0.5556
vn -0.9808 0.0000 0.1951
vn -0.9808 0.0000 -0.1951
vn -0.8315 0.0000 -0.5556
vn 0.1644 0.9859 0.0327
vn -0.5556 0.0000 -0.8315
vn -0.1951 0.0000 -0.9808
vn -0.4897 -0.4722 0.7329
vn 0.8263 0.1110 -0.5521
vn -0.0931 0.9859 0.1393
vn -0.0931 0.9859 -0.1393
vn 0.1393 0.9859 -0.0931
vn 0.0327 0.9859 0.1644
vn 0.0327 0.9859 -0.1644
vn -0.1644 0.9859 -0.0327
vn 0.1393 0.9859 0.0931
vn -0.1393 0.9859 0.0931
vn -0.0327 0.9859 -0.1644
vn 0.1644 0.9859 -0.0327
vn -0.0327 0.9859 0.1644
vn -0.1393 0.9859 -0.0931
vn 0.0931 0.9859 -0.1393
vn 0.0931 0.9859 0.1393
vn -0.1644 0.9859 0.0327
vn 0.0000 1.0000 0.0000
vn -0.9747 0.1110 0.1939
vn 0.9747 0.1110 -0.1939
vn -0.9747 0.1110 -0.1939
vn 0.9747 0.1110 0.1939
vn -0.8263 0.1110 -0.5521
vn 0.8263 0.1110 0.5521
vn -0.5521 0.1110 -0.8263
vn 0.5521 0.1110 0.8263
vn -0.1939 0.1110 -0.9747
vn -0.1939 0.1110 0.9747
vn 0.1939 0.1110 0.9747
vn 0.1939 0.1110 -0.9747
vn -0.5521 0.1110 0.8263
vn 0.5521 0.1110 -0.8263
vn -0.8263 0.1110 0.5521
vn 0.0000 -1.0000 0.0000
vn -0.4897 -0.4722 -0.7329
vn 0.7329 -0.4722 -0.4897
vn 0.1720 -0.4722 0.8646
vn 0.1720 -0.4722 -0.8646
vn -0.8646 -0.4722 -0.1720
vn 0.7329 -0.4722 0.4897
vn -0.7329 -0.4722 0.4897
vn -0.1720 -0.4722 -0.8646
vn 0.8646 -0.4722 -0.1720
vn -0.1720 -0.4722 0.8646
vn -0.7329 -0.4722 -0.4897
vn 0.4897 -0.4722 -0.7329
vn 0.4897 -0.4722 0.7329
vn -0.8646 -0.4722 0.1720
vn 0.8646 -0.4722 0.1720
s off
f 2/1/1 3/2/1 1/3/1
f 4/4/2 5/5/2 3/2/2
f 6/6/3 7/7/3 5/5/3
f 8/8/4 9/9/4 7/7/4
f 10/10/5 11/11/5 9/12/5
f 12/13/6 13/14/6 11/11/6
f 14/15/7 15/16/7 13/14/7
f 16/17/8 17/18/8 15/16/8
f 18/19/9 19/20/9 17/18/9
f 20/21/10 21/22/10 19/20/10
f 22/23/11 23/24/11 21/22/11
f 24/25/12 25/26/12 23/24/12
f 26/27/13 27/28/13 25/26/13
f 28/29/14 29/30/14 27/28/14
f 10/31/15 38/32/15 12/33/15
f 30/34/16 31/35/16 29/30/16
f 32/36/17 1/3/17 31/35/17
f 21/37/18 74/38/18 19/39/18
f 44/40/19 59/41/19 60/42/19
f 20/43/20 43/44/20 22/45/20
f 30/46/21 48/47/21 32/48/21
f 8/49/22 35/50/22 36/51/22
f 16/52/23 41/53/23 18/54/23
f 2/55/24 34/56/24 4/57/24
f 28/58/25 45/59/25 46/60/25
f 12/33/26 39/61/26 14/62/26
f 24/63/27 43/44/27 44/40/27
f 32/48/28 33/64/28 2/55/28
f 10/31/29 36/51/29 37/65/29
f 18/54/30 42/66/30 20/43/30
f 28/58/31 47/67/31 30/46/31
f 4/57/32 35/50/32 6/68/32
f 14/62/33 40/69/33 16/52/33
f 26/70/34 44/40/34 45/59/34
f 57/71/35 55/72/35 51/73/35
f 36/51/36 53/74/36 37/65/36
f 45/59/37 60/42/37 61/75/37
f 38/32/38 53/74/38 54/76/38
f 45/59/39 62/77/39 46/60/39
f 38/32/40 55/72/40 39/61/40
f 46/60/41 63/78/41 47/67/41
f 39/61/42 56/79/42 40/69/42
f 47/67/43 64/80/43 48/47/43
f 40/69/44 57/71/44 41/53/44
f 33/64/45 50/81/45 34/56/45
f 48/47/46 49/82/46 33/64/46
f 41/53/47 58/83/47 42/66/47
f 34/56/48 51/73/48 35/50/48
f 43/44/49 58/83/49 59/41/49
f 36/51/50 51/73/50 52/84/50
f 72/85/51 76/86/51 68/87/51
f 29/88/52 80/89/52 79/90/52
f 7/91/53 67/92/53 5/93/53
f 17/94/54 72/85/54 15/95/54
f 3/96/55 65/97/55 1/98/55
f 27/99/56 77/100/56 25/101/56
f 13/102/57 70/103/57 11/104/57
f 23/105/58 75/106/58 21/37/58
f 31/107/59 65/97/59 80/89/59
f 7/91/60 69/108/60 68/87/60
f 17/94/61 74/38/61 73/109/61
f 27/99/62 79/90/62 78/110/62
f 5/93/63 66/111/63 3/96/63
f 13/102/64 72/85/64 71/112/64
f 25/101/65 76/86/65 23/105/65
f 11/104/66 69/108/66 9/113/66
f 2/1/1 4/4/1 3/2/1
f 4/4/2 6/6/2 5/5/2
f 6/6/3 8/8/3 7/7/3
f 8/8/4 10/114/4 9/9/4
f 10/10/5 12/13/5 11/11/5
f 12/13/6 14/15/6 13/14/6
f 14/15/7 16/17/7 15/16/7
f 16/17/8 18/19/8 17/18/8
f 18/19/9 20/21/9 19/20/9
f 20/21/10 22/23/10 21/22/10
f 22/23/11 24/25/11 23/24/11
f 24/25/12 26/27/12 25/26/12
f 26/27/13 28/29/13 27/28/13
f 28/29/14 30/34/14 29/30/14
f 10/31/15 37/65/15 38/32/15
f 30/34/16 32/36/16 31/35/16
f 32/36/17 2/1/17 1/3/17
f 21/37/18 75/106/18 74/38/18
f 44/40/19 43/44/19 59/41/19
f 20/43/20 42/66/20 43/44/20
f 30/46/21 47/67/21 48/47/21
f 8/49/22 6/68/22 35/50/22
f 16/52/23 40/69/23 41/53/23
f 2/55/24 33/64/24 34/56/24
f 28/58/25 26/70/25 45/59/25
f 12/33/26 38/32/26 39/61/26
f 24/63/27 22/45/27 43/44/27
f 32/48/28 48/47/28 33/64/28
f 10/31/29 8/49/29 36/51/29
f 18/54/30 41/53/30 42/66/30
f 28/58/31 46/60/31 47/67/31
f 4/57/32 34/56/32 35/50/32
f 14/62/33 39/61/33 40/69/33
f 26/70/34 24/63/34 44/40/34
f 51/73/35 50/81/35 49/82/35
f 49/82/35 64/80/35 63/78/35
f 63/78/35 62/77/35 61/75/35
f 61/75/35 60/42/35 59/41/35
f 59/41/35 58/83/35 57/71/35
f 57/71/35 56/79/35 55/72/35
f 55/72/35 54/76/35 53/74/35
f 53/74/35 52/84/35 51/73/35
f 51/73/35 49/82/35 63/78/35
f 63/78/35 61/75/35 51/73/35
f 59/41/35 57/71/35 51/73/35
f 55/72/35 53/74/35 51/73/35
f 51/73/35 61/75/35 59/41/35
f 36/51/36 52/84/36 53/74/36
f 45/59/37 44/40/37 60/42/37
f 38/32/38 37/65/38 53/74/38
f 45/59/39 61/75/39 62/77/39
f 38/32/40 54/76/40 55/72/40
f 46/60/41 62/77/41 63/78/41
f 39/61/42 55/72/42 56/79/42
f 47/67/43 63/78/43 64/80/43
f 40/69/44 56/79/44 57/71/44
f 33/64/45 49/82/45 50/81/45
f 48/47/46 64/80/46 49/82/46
f 41/53/47 57/71/47 58/83/47
f 34/56/48 50/81/48 51/73/48
f 43/44/49 42/66/49 58/83/49
f 36/51/50 35/50/50 51/73/50
f 80/89/51 65/97/51 66/111/51
f 66/111/51 67/92/51 80/89/51
f 68/87/51 69/108/51 70/103/51
f 70/103/51 71/112/51 68/87/51
f 72/85/51 73/109/51 74/38/51
f 74/38/51 75/106/51 76/86/51
f 76/86/51 77/100/51 78/110/51
f 78/110/51 79/90/51 76/86/51
f 80/89/51 67/92/51 68/87/51
f 68/87/51 71/112/51 72/85/51
f 72/85/51 74/38/51 76/86/51
f 76/86/51 79/90/51 80/89/51
f 80/89/51 68/87/51 76/86/51
f 29/88/52 31/107/52 80/89/52
f 7/91/53 68/87/53 67/92/53
f 17/94/54 73/109/54 72/85/54
f 3/96/55 66/111/55 65/97/55
f 27/99/56 78/110/56 77/100/56
f 13/102/57 71/112/57 70/103/57
f 23/105/58 76/86/58 75/106/58
f 31/107/59 1/98/59 65/97/59
f 7/91/60 9/113/60 69/108/60
f 17/94/61 19/39/61 74/38/61
f 27/99/62 29/88/62 79/90/62
f 5/93/63 67/92/63 66/111/63
f 13/102/64 15/95/64 72/85/64
f 25/101/65 77/100/65 76/86/65
f 11/104/66 70/103/66 69/108/66
