v 1.000000 -0.743024 -1.000000
v 0.590243 -1.000000 1.000000
v -1.000000 -1.000000 1.000000
v -1.000000 -1.000000 -1.000000
v 1.000000 0.374201 -1.000000
v 0.999999 0.779238 1.000001
v -1.000000 0.631177 1.000000
v -1.000000 1.000000 -1.000000
v 1.000000 -1.000000 0.000000
v 0.000000 -1.000000 -1.000000
v 1.000000 0.000000 -1.000000
v 0.000000 -1.000000 1.000000
v 1.000000 0.000000 1.000000
v -1.000000 -1.000000 -0.000000
v -1.000000 0.000000 1.000000
v -1.000000 0.000000 -1.000000
v 1.000000 1.000000 0.000001
v 0.000000 1.000000 -1.000000
v -0.000001 1.000000 1.000000
v -1.000000 1.000000 -0.000000
v 0.000000 0.000000 -1.000000
v -1.000000 0.000000 -0.000000
v -0.000000 0.000000 1.275975
v 1.204653 0.000000 0.000000
v -0.000000 1.757952 0.000000
v 0.000000 -1.000000 -0.000000
vt 1.000000 0.500000
vt 0.500000 1.000000
vt 0.500000 0.500000
vt 1.000000 0.500000
vt 0.500000 1.000000
vt 0.500000 0.500000
vt 0.500000 0.500000
vt 1.000000 1.000000
vt 0.500000 1.000000
vt 0.500000 0.500000
vt 1.000000 1.000000
vt 0.500000 1.000000
vt 0.500000 0.500000
vt 1.000000 1.000000
vt 0.500000 1.000000
vt 0.500000 0.500000
vt 1.000000 1.000000
vt 0.000000 1.000000
vt 0.000000 0.500000
vt 0.000000 0.000000
vt 1.000000 0.000000
vt 0.500000 0.000000
vt 0.000000 1.000000
vt 0.000000 0.500000
vt 0.500000 0.000000
vt 0.000000 0.000000
vt 1.000000 0.000000
vt 0.000000 0.500000
vt 0.000000 1.000000
vt 0.000000 0.000000
vt 1.000000 0.000000
vt 0.500000 0.000000
vt 0.000000 0.500000
vt 0.000000 1.000000
vt 0.000000 0.000000
vt 1.000000 0.000000
vt 0.000000 0.500000
vt 0.000000 1.000000
vt 0.500000 0.000000
vt 0.000000 0.500000
vt 0.500000 0.000000
vt 1.000000 0.000000
vt 1.000000 1.000000
vt 1.000000 0.500000
vt 1.000000 0.500000
vt 1.000000 0.500000
vt 1.000000 0.000000
vn 0.0000 -1.0000 0.0000
vn -0.5170 0.6822 0.5170
vn 0.9797 0.0000 0.2005
vn -0.2660 0.0000 0.9640
vn -1.0000 -0.0000 -0.0000
vn 0.0000 0.0000 -1.0000
vn -0.0000 0.0000 1.0000
vn -0.0000 -0.2660 0.9640
vn 0.2660 -0.0000 0.9640
vn 0.8652 -0.3545 0.3545
vn 0.9784 -0.2002 -0.0515
vn 0.9797 0.0000 -0.2005
vn 0.2107 0.9546 0.2107
vn 0.4686 0.7488 -0.4686
vn -0.5170 0.6822 -0.5170
vn 0.2415 -0.9399 -0.2415
vn -0.3270 0.8866 0.3270
vn 0.9787 0.2003 0.0442
vn -0.0976 0.2648 0.9594
vn -0.2571 -0.2571 0.9316
vn 0.2645 -0.1084 0.9583
vn 0.0586 0.2656 0.9623
vn 0.9606 -0.1966 0.1966
vn 0.9721 0.1989 -0.1245
vn 0.5170 0.6822 0.5170
vn 0.5170 0.6822 -0.5170
vn 0.0000 1.0000 0.0000
f 12/1/1 14/2/1 26/3/1
f 20/4/2 19/5/2 25/6/2
f 24/7/3 6/8/3 13/9/3
f 23/10/4 7/11/4 15/12/4
f 22/13/5 8/14/5 16/15/5
f 21/16/6 4/17/6 16/15/6
f 21/16/6 8/18/6 18/19/6
f 5/20/6 21/16/6 18/19/6
f 1/21/6 21/16/6 11/22/6
f 22/13/5 4/23/5 14/24/5
f 15/25/5 14/24/5 3/26/5
f 7/27/5 22/13/5 15/25/5
f 12/28/7 15/12/7 3/29/7
f 2/30/8 23/10/8 12/28/8
f 6/31/9 23/10/9 13/32/9
f 9/33/10 13/9/10 2/34/10
f 1/35/11 24/7/11 9/33/11
f 5/36/12 24/7/12 11/22/12
f 17/37/13 19/5/13 6/38/13
f 18/39/14 17/37/14 5/20/14
f 18/39/15 20/4/15 25/6/15
f 10/40/1 14/2/1 4/23/1
f 9/41/16 10/40/16 1/35/16
f 2/42/1 26/3/1 9/41/1
f 12/1/1 3/43/1 14/2/1
f 20/4/17 7/11/17 19/5/17
f 24/7/18 17/44/18 6/8/18
f 23/10/19 19/45/19 7/11/19
f 22/13/5 20/4/5 8/14/5
f 21/16/6 10/46/6 4/17/6
f 21/16/6 16/15/6 8/18/6
f 5/20/6 11/22/6 21/16/6
f 1/21/6 10/46/6 21/16/6
f 22/13/5 16/15/5 4/23/5
f 15/25/5 22/13/5 14/24/5
f 7/27/5 20/4/5 22/13/5
f 12/28/20 23/10/20 15/12/20
f 2/30/21 13/32/21 23/10/21
f 6/31/22 19/45/22 23/10/22
f 9/33/23 24/7/23 13/9/23
f 1/35/12 11/22/12 24/7/12
f 5/36/24 17/44/24 24/7/24
f 17/37/25 25/6/25 19/5/25
f 18/39/26 25/6/26 17/37/26
f 18/39/27 8/47/27 20/4/27
f 10/40/1 26/3/1 14/2/1
f 9/41/1 26/3/1 10/40/1
f 2/42/1 12/1/1 26/3/1
