# Blender v2.79 (sub 0) OBJ File: ''
# www.blender.org
o Cone
v 0.018487 1.237674 -0.986586
v 0.000000 3.978287 0.000000
v 0.219125 1.249989 -0.827682
v 0.443927 1.170829 -0.827399
v 0.472729 1.196179 -0.899167
v 0.611657 1.128376 -0.748783
v 0.733748 1.350475 -0.501846
v 0.607152 1.115405 -0.487466
v 0.942211 1.218793 -0.200527
v 1.316328 1.346971 0.025293
v 0.953636 1.197964 0.167865
v 0.933841 1.186661 0.507663
v 0.819597 1.189612 0.544890
v 0.686500 1.211876 0.686679
v 0.557798 1.218576 0.826080
v 0.350213 1.165410 0.846525
v 0.199529 1.064948 1.026909
v 0.006558 1.116976 1.062131
v -0.135940 1.246977 0.980524
v -0.437803 1.263447 0.871999
v -0.602435 1.239617 0.877286
v -0.644724 1.246983 0.636710
v -0.906599 1.045262 0.507267
v -0.912842 1.289843 0.356347
v -0.920008 1.136821 0.200144
v -0.875354 1.253749 0.110367
v -0.962688 1.247001 -0.179326
v -0.895729 1.230849 -0.371807
v -0.894916 1.336308 -0.500074
v -0.702886 1.281738 -0.680764
v -0.484016 1.189062 -0.779916
v -0.373270 1.220166 -0.896039
v -0.245660 1.194378 -0.885890
v 0.477539 2.597295 -0.094988
v -0.186635 2.599227 -0.448019
v 0.476818 2.588126 0.083933
v 0.000095 -0.205336 -0.185911
v 0.000095 2.247584 -0.159978
v 0.036549 -0.205336 -0.182320
v 0.031490 2.247584 -0.156886
v 0.071602 -0.205336 -0.171687
v 0.061678 2.247584 -0.147729
v 0.103907 -0.205336 -0.154420
v 0.089500 2.247584 -0.132858
v 0.132223 -0.205336 -0.131182
v 0.113886 2.247584 -0.112845
v 0.155461 -0.205336 -0.102866
v 0.133899 2.247584 -0.088459
v 0.172729 -0.205336 -0.070561
v 0.148770 2.247584 -0.060637
v 0.183362 -0.205336 -0.035508
v 0.157928 2.247584 -0.030448
v 0.186952 -0.205336 0.000946
v 0.161020 2.247584 0.000946
v 0.183362 -0.205336 0.037400
v 0.157928 2.247584 0.032341
v 0.172729 -0.205336 0.072454
v 0.148770 2.247584 0.062530
v 0.155461 -0.205336 0.104759
v 0.133899 2.247584 0.090352
v 0.132223 -0.205336 0.133075
v 0.113886 2.247584 0.114738
v 0.103907 -0.205336 0.156313
v 0.089500 2.247584 0.134751
v 0.071602 -0.205336 0.173580
v 0.061678 2.247584 0.149622
v 0.036549 -0.205336 0.184213
v 0.031490 2.247584 0.158779
v 0.000095 -0.205336 0.187804
v 0.000095 2.247584 0.161871
v -0.036359 -0.205336 0.184213
v -0.031300 2.247584 0.158779
v -0.071412 -0.205336 0.173580
v -0.061488 2.247584 0.149622
v -0.103717 -0.205336 0.156313
v -0.089310 2.247584 0.134751
v -0.132033 -0.205336 0.133074
v -0.113696 2.247584 0.114738
v -0.155271 -0.205336 0.104759
v -0.133709 2.247584 0.090351
v -0.172539 -0.205336 0.072453
v -0.148580 2.247584 0.062530
v -0.183172 -0.205336 0.037400
v -0.157738 2.247584 0.032341
v -0.186762 -0.205336 0.000946
v -0.160830 2.247584 0.000946
v -0.183172 -0.205336 -0.035508
v -0.157738 2.247584 -0.030449
v -0.172538 -0.205336 -0.070561
v -0.148580 2.247584 -0.060637
v -0.155271 -0.205336 -0.102866
v -0.133709 2.247584 -0.088459
v -0.132033 -0.205336 -0.131182
v -0.113696 2.247584 -0.112845
v -0.103717 -0.205336 -0.154420
v -0.089310 2.247584 -0.132858
v -0.071412 -0.205336 -0.171687
v -0.061488 2.247584 -0.147729
v -0.036359 -0.205336 -0.182320
v -0.031300 2.247584 -0.156886
v 0.000095 0.245576 -0.159978
v 0.031490 0.245576 -0.156886
v 0.061678 0.245576 -0.147729
v 0.089500 0.245576 -0.132858
v 0.113886 0.245576 -0.112845
v 0.133899 0.245576 -0.088459
v 0.148770 0.245576 -0.060637
v 0.157928 0.245576 -0.030448
v 0.161020 0.245576 0.000946
v 0.157928 0.245576 0.032341
v 0.148770 0.245576 0.062530
v 0.133899 0.245576 0.090352
v 0.113886 0.245576 0.114738
v 0.089500 0.245576 0.134751
v 0.061678 0.245576 0.149622
v 0.031490 0.245576 0.158779
v 0.000095 0.245576 0.161871
v -0.031300 0.245576 0.158779
v -0.061488 0.245576 0.149622
v -0.089310 0.245576 0.134751
v -0.113696 0.245576 0.114738
v -0.133709 0.245576 0.090351
v -0.148580 0.245576 0.062530
v -0.157738 0.245576 0.032341
v -0.160830 0.245576 0.000946
v -0.157738 0.245576 -0.030449
v -0.148580 0.245576 -0.060637
v -0.133709 0.245576 -0.088459
v -0.113696 0.245576 -0.112845
v -0.089310 0.245576 -0.132858
v -0.061488 0.245576 -0.147729
v -0.031300 0.245576 -0.156886
v 0.011609 -0.033370 0.115642
vt 0.833954 0.367148
vt 0.418994 0.434942
vt 0.807143 0.318377
vt 0.807795 0.268416
vt 0.806074 0.251364
vt 0.786621 0.210353
vt 0.725802 0.183060
vt 0.712973 0.143506
vt 0.529062 0.255237
vt 0.641164 0.078471
vt 0.571545 0.011640
vt 0.451877 0.226029
vt 0.484760 0.017116
vt 0.412733 0.000155
vt 0.388694 0.010370
vt 0.347299 0.019411
vt 0.306642 0.026365
vt 0.263994 0.043275
vt 0.211350 0.039492
vt 0.176367 0.064814
vt 0.163167 0.102150
vt 0.113970 0.151604
vt 0.082416 0.168810
vt 0.068904 0.220164
vt 0.009008 0.254114
vt 0.029452 0.295364
vt 0.005697 0.326964
vt 0.020669 0.349076
vt 0.001057 0.411856
vt 0.000155 0.456194
vt 0.008428 0.486235
vt 0.018789 0.543061
vt 0.819195 0.543060
vt 0.833818 0.491453
vt 0.629054 0.445839
vt 0.839115 0.456736
vt 0.837135 0.428775
vt 0.404227 0.821755
vt 0.230010 0.958472
vt 0.219002 0.590136
vt 0.617600 0.869832
vt 0.612404 0.603169
vt 0.619363 0.603464
vt 0.610759 0.869775
vt 0.605421 0.602907
vt 0.603919 0.869722
vt 0.598416 0.602677
vt 0.597079 0.869672
vt 0.591395 0.602480
vt 0.590238 0.869626
vt 0.584360 0.602313
vt 0.583397 0.869584
vt 0.577314 0.602177
vt 0.576556 0.869547
vt 0.570261 0.602070
vt 0.569715 0.869515
vt 0.563202 0.601993
vt 0.562875 0.869487
vt 0.556140 0.601945
vt 0.556034 0.869464
vt 0.549078 0.601925
vt 0.549193 0.869445
vt 0.542017 0.601933
vt 0.542352 0.869432
vt 0.534960 0.601969
vt 0.535512 0.869423
vt 0.527909 0.602034
vt 0.528672 0.869419
vt 0.520867 0.602126
vt 0.521832 0.869420
vt 0.513837 0.602247
vt 0.514992 0.869425
vt 0.506820 0.602397
vt 0.508153 0.869434
vt 0.499819 0.602575
vt 0.501314 0.869448
vt 0.492840 0.602782
vt 0.494475 0.869466
vt 0.485883 0.603019
vt 0.487637 0.869488
vt 0.478955 0.603285
vt 0.480799 0.869513
vt 0.472059 0.603580
vt 0.473961 0.869542
vt 0.465200 0.603905
vt 0.467123 0.869573
vt 0.458385 0.604260
vt 0.460286 0.869607
vt 0.451617 0.604642
vt 0.453448 0.869643
vt 0.444906 0.605052
vt 0.446610 0.869681
vt 0.438257 0.605505
vt 0.658635 0.870094
vt 0.653607 0.605455
vt 0.660303 0.605942
vt 0.651798 0.870051
vt 0.646852 0.604988
vt 0.644961 0.870009
vt 0.640044 0.604555
vt 0.638122 0.869968
vt 0.633188 0.604157
vt 0.693386 0.625855
vt 0.720029 0.628479
vt 0.734388 0.675815
vt 0.631281 0.869929
vt 0.626293 0.603793
vt 0.624440 0.869893
vt 0.668730 0.587770
vt 0.734915 0.552393
vt 0.749568 0.579808
vt 0.630815 0.545684
vt 0.623309 0.545201
vt 0.638330 0.546246
vt 0.645853 0.546898
vt 0.653380 0.547649
vt 0.660899 0.548538
vt 0.668421 0.549550
vt 0.430215 0.550006
vt 0.437607 0.549001
vt 0.445021 0.548115
vt 0.452450 0.547336
vt 0.459886 0.546653
vt 0.467326 0.546058
vt 0.474765 0.545542
vt 0.482201 0.545097
vt 0.489632 0.544716
vt 0.497057 0.544393
vt 0.504475 0.544121
vt 0.511888 0.543897
vt 0.519296 0.543716
vt 0.526699 0.543575
vt 0.534099 0.543472
vt 0.541499 0.543404
vt 0.548898 0.543370
vt 0.556301 0.543370
vt 0.563707 0.543405
vt 0.571120 0.543475
vt 0.578541 0.543582
vt 0.585972 0.543728
vt 0.593414 0.543918
vt 0.600868 0.544155
vt 0.608335 0.544444
vt 0.615816 0.544790
vt 0.032436 0.678892
vt 0.052564 0.620557
vt 0.107055 0.609237
vt 0.139011 0.570826
vt 0.130391 0.556013
vt 0.175702 0.553324
vt 0.012470 0.698567
vt 0.016854 0.733411
vt 0.242323 0.555708
vt 0.314581 0.574506
vt 0.405895 0.543370
vt 0.376629 0.625255
vt 0.429905 0.676609
vt 0.419872 0.700724
vt 0.424610 0.742830
vt 0.429905 0.783737
vt 0.000984 0.842141
vt 0.000155 0.784385
vt 0.027114 0.859116
vt 0.110166 0.923269
vt 0.049762 0.897244
vt 0.418166 0.872660
vt 0.358416 0.921911
vt 0.396117 0.909793
vt 0.145704 0.964314
vt 0.108876 0.949941
vt 0.174980 0.999845
vt 0.298134 0.957013
vt 0.275876 0.985232
vt 0.439752 0.869719
vt 0.730578 0.681517
vt 0.725730 0.686365
vt 0.720028 0.690175
vt 0.713693 0.692799
vt 0.706968 0.694136
vt 0.700111 0.694136
vt 0.693386 0.692799
vt 0.687051 0.690175
vt 0.681350 0.686365
vt 0.676501 0.681517
vt 0.672692 0.675815
vt 0.670068 0.669481
vt 0.668730 0.662755
vt 0.672692 0.642838
vt 0.668730 0.655898
vt 0.670068 0.649173
vt 0.676501 0.637137
vt 0.681350 0.632289
vt 0.687051 0.628479
vt 0.700111 0.624517
vt 0.706968 0.624517
vt 0.713694 0.625855
vt 0.725730 0.632289
vt 0.730578 0.637137
vt 0.734388 0.642839
vt 0.737012 0.649173
vt 0.738349 0.655898
vt 0.738349 0.662755
vt 0.737012 0.669481
vt 0.749568 0.587770
vt 0.748015 0.595579
vt 0.744968 0.602934
vt 0.740545 0.609555
vt 0.734915 0.615184
vt 0.728295 0.619608
vt 0.720939 0.622655
vt 0.713130 0.624208
vt 0.705168 0.624208
vt 0.697360 0.622655
vt 0.690004 0.619608
vt 0.683384 0.615184
vt 0.677754 0.609555
vt 0.673330 0.602935
vt 0.670284 0.595579
vt 0.668730 0.579808
vt 0.670283 0.571999
vt 0.673330 0.564644
vt 0.677754 0.558023
vt 0.683384 0.552394
vt 0.690004 0.547970
vt 0.697359 0.544923
vt 0.705168 0.543370
vt 0.713130 0.543370
vt 0.720939 0.544923
vt 0.728295 0.547970
vt 0.740545 0.558023
vt 0.744968 0.564644
vt 0.748015 0.571999
vn 0.5858 0.2780 -0.7613
vn 0.1056 0.2964 -0.9492
vn -0.9234 -0.0333 -0.3824
vn 0.7638 0.3123 -0.5648
vn 0.7047 0.3179 -0.6343
vn 0.2932 -0.0997 0.9508
vn 0.5822 0.2554 -0.7719
vn 0.4487 0.2176 -0.8668
vn 0.3032 0.1607 0.9393
vn 0.9426 0.3273 0.0658
vn 0.3047 0.2681 0.9139
vn 0.7135 0.3304 0.6179
vn 0.7012 0.3308 0.6315
vn 0.0199 0.2904 0.9567
vn 0.6475 0.2924 0.7037
vn 0.2562 0.3369 0.9060
vn -0.2148 0.3394 0.9158
vn -0.3025 0.3354 0.8922
vn -0.0140 0.3078 0.9513
vn -0.9484 0.2646 0.1748
vn -0.6037 0.3134 0.7330
vn -0.7536 0.3311 0.5678
vn -0.9293 0.2843 -0.2358
vn -0.9500 0.3020 -0.0792
vn -0.9139 0.3045 0.2684
vn -0.8817 0.3327 -0.3346
vn -0.9358 0.2753 0.2204
vn -0.5918 0.3389 -0.7313
vn -0.2835 0.3036 -0.9096
vn -0.7293 0.2987 -0.6155
vn 0.1339 0.2898 -0.9477
vn -0.3826 0.3106 -0.8701
vn -0.0860 -0.9961 0.0208
vn 0.0980 0.0000 -0.9952
vn 0.2903 0.0000 -0.9569
vn 0.4714 0.0000 -0.8819
vn 0.6344 0.0000 -0.7730
vn 0.7730 0.0000 -0.6344
vn 0.8819 0.0000 -0.4714
vn 0.9569 0.0000 -0.2903
vn 0.9952 0.0000 -0.0980
vn 0.9952 0.0000 0.0980
vn 0.9569 0.0000 0.2903
vn 0.8819 0.0000 0.4714
vn 0.7730 0.0000 0.6344
vn 0.6344 0.0000 0.7730
vn 0.4714 0.0000 0.8819
vn 0.2903 0.0000 0.9569
vn 0.0980 0.0000 0.9952
vn -0.0980 0.0000 0.9952
vn -0.2903 0.0000 0.9569
vn -0.4714 0.0000 0.8819
vn -0.6344 0.0000 0.7730
vn -0.7730 0.0000 0.6344
vn -0.8819 0.0000 0.4714
vn -0.9569 0.0000 0.2903
vn -0.9952 0.0000 0.0980
vn -0.9952 0.0000 -0.0980
vn -0.9569 0.0000 -0.2903
vn -0.8819 0.0000 -0.4714
vn -0.7730 0.0000 -0.6344
vn -0.6344 0.0000 -0.7730
vn -0.4714 0.0000 -0.8819
vn 0.0000 1.0000 -0.0000
vn -0.2903 0.0000 -0.9569
vn -0.0980 0.0000 -0.9952
vn 0.0000 -1.0000 -0.0000
vn -0.0979 0.0571 -0.9936
vn -0.2898 0.0571 -0.9554
vn -0.4706 0.0571 -0.8805
vn -0.6334 0.0571 -0.7717
vn -0.7717 0.0571 -0.6334
vn -0.8805 0.0571 -0.4706
vn -0.9554 0.0571 -0.2898
vn -0.9936 0.0571 -0.0979
vn -0.9936 0.0571 0.0979
vn -0.9554 0.0571 0.2898
vn -0.8805 0.0571 0.4706
vn -0.7717 0.0571 0.6334
vn -0.6334 0.0571 0.7717
vn -0.4706 0.0571 0.8805
vn -0.2898 0.0571 0.9554
vn -0.0979 0.0571 0.9936
vn 0.0979 0.0571 0.9936
vn 0.2898 0.0571 0.9554
vn 0.4706 0.0571 0.8805
vn 0.6334 0.0571 0.7717
vn 0.7717 0.0571 0.6334
vn 0.8805 0.0571 0.4706
vn 0.9554 0.0571 0.2898
vn 0.9936 0.0571 0.0979
vn 0.9936 0.0571 -0.0979
vn 0.9554 0.0571 -0.2898
vn 0.8805 0.0571 -0.4706
vn 0.7717 0.0571 -0.6334
vn 0.6334 0.0571 -0.7717
vn 0.4706 0.0571 -0.8805
vn 0.2898 0.0571 -0.9554
vn 0.0979 0.0571 -0.9936
vn 0.5846 0.2551 -0.7702
vn 0.4422 0.2128 -0.8713
vn 0.1290 -0.9879 -0.0863
vn -0.0687 -0.9317 -0.3567
vn -0.1527 -0.9085 -0.3889
vn -0.3321 -0.9432 0.0057
vn 0.8802 -0.4745 -0.0084
vn 0.3577 -0.9317 -0.0638
vn -0.2220 -0.9737 -0.0522
vn 0.3436 -0.9370 -0.0636
vn -0.0373 -0.9987 -0.0354
vn 0.2641 -0.9205 0.2881
vn 0.1651 -0.9856 0.0369
vn 0.0504 -0.9077 -0.4165
vn 0.0964 -0.9811 0.1676
vn -0.6337 -0.5955 -0.4937
vn -0.0928 -0.9944 0.0511
vn -0.5119 -0.7372 -0.4410
vn -0.0775 -0.9963 0.0383
vn -0.0739 -0.9935 0.0866
vn -0.2956 -0.7081 -0.6413
vn -0.3079 -0.7246 -0.6166
vn 0.1688 -0.9832 0.0694
vn -0.0521 -0.9974 0.0496
vn 0.9571 -0.2278 0.1793
vn 0.6332 -0.3947 -0.6658
vn 0.1413 -0.9884 -0.0551
vn -0.1166 -0.9781 0.1725
vn -0.0834 -0.9962 0.0237
vn -0.2595 -0.9604 0.1014
vn -0.1141 -0.9790 0.1689
vn 0.0000 1.0000 -0.0001
s off
f 1/1/1 2/2/1 3/3/1
f 3/3/2 2/2/2 4/4/2
f 4/4/3 2/2/3 5/5/3
f 5/5/4 2/2/4 6/6/4
f 6/6/5 2/2/5 7/7/5
f 7/7/6 2/2/6 8/8/6
f 8/8/7 34/9/7 9/10/7
f 34/9/8 10/11/8 9/10/8
f 10/11/9 36/12/9 11/13/9
f 36/12/10 12/14/10 11/13/10
f 12/14/11 2/2/11 13/15/11
f 13/15/12 2/2/12 14/16/12
f 14/16/13 2/2/13 15/17/13
f 15/17/14 2/2/14 16/18/14
f 16/18/15 2/2/15 17/19/15
f 17/19/16 2/2/16 18/20/16
f 18/20/17 2/2/17 19/21/17
f 19/21/18 2/2/18 20/22/18
f 20/22/19 2/2/19 21/23/19
f 21/23/20 2/2/20 22/24/20
f 22/24/21 2/2/21 23/25/21
f 23/25/22 2/2/22 24/26/22
f 24/26/23 2/2/23 25/27/23
f 25/27/24 2/2/24 26/28/24
f 26/28/25 2/2/25 27/29/25
f 27/29/26 2/2/26 28/30/26
f 28/30/27 2/2/27 29/31/27
f 29/31/28 2/2/28 30/32/28
f 30/33/29 2/2/29 31/34/29
f 31/34/30 35/35/30 32/36/30
f 35/35/31 33/37/31 32/36/31
f 33/37/32 2/2/32 1/1/32
f 16/38/33 22/39/33 8/40/33
f 38/41/34 102/42/34 101/43/34
f 40/44/35 103/45/35 102/42/35
f 42/46/36 104/47/36 103/45/36
f 44/48/37 105/49/37 104/47/37
f 46/50/38 106/51/38 105/49/38
f 48/52/39 107/53/39 106/51/39
f 50/54/40 108/55/40 107/53/40
f 52/56/41 109/57/41 108/55/41
f 54/58/42 110/59/42 109/57/42
f 56/60/43 111/61/43 110/59/43
f 58/62/44 112/63/44 111/61/44
f 60/64/45 113/65/45 112/63/45
f 62/66/46 114/67/46 113/65/46
f 64/68/47 115/69/47 114/67/47
f 66/70/48 116/71/48 115/69/48
f 68/72/49 117/73/49 116/71/49
f 70/74/50 118/75/50 117/73/50
f 72/76/51 119/77/51 118/75/51
f 74/78/52 120/79/52 119/77/52
f 76/80/53 121/81/53 120/79/53
f 78/82/54 122/83/54 121/81/54
f 80/84/55 123/85/55 122/83/55
f 82/86/56 124/87/56 123/85/56
f 84/88/57 125/89/57 124/87/57
f 86/90/58 126/91/58 125/89/58
f 88/92/59 127/93/59 126/91/59
f 90/94/60 128/95/60 127/96/60
f 92/97/61 129/98/61 128/95/61
f 94/99/62 130/100/62 129/98/62
f 96/101/63 131/102/63 130/100/63
f 66/103/64 58/104/64 42/105/64
f 98/106/65 132/107/65 131/102/65
f 100/108/66 101/43/66 132/107/66
f 67/109/67 91/110/67 99/111/67
f 99/112/68 101/43/68 37/113/68
f 97/114/69 132/107/69 99/112/69
f 95/115/70 131/102/70 97/114/70
f 129/98/71 95/115/71 93/116/71
f 128/95/72 93/116/72 91/117/72
f 127/96/73 91/117/73 89/118/73
f 126/91/74 89/119/74 87/120/74
f 125/89/75 87/120/75 85/121/75
f 124/87/76 85/121/76 83/122/76
f 123/85/77 83/122/77 81/123/77
f 122/83/78 81/123/78 79/124/78
f 121/81/79 79/124/79 77/125/79
f 120/79/80 77/125/80 75/126/80
f 119/77/81 75/126/81 73/127/81
f 118/75/82 73/127/82 71/128/82
f 117/73/83 71/128/83 69/129/83
f 67/130/84 117/73/84 69/129/84
f 65/131/85 116/71/85 67/130/85
f 114/67/86 65/131/86 63/132/86
f 61/133/87 114/67/87 63/132/87
f 112/63/88 61/133/88 59/134/88
f 111/61/89 59/134/89 57/135/89
f 110/59/90 57/135/90 55/136/90
f 109/57/91 55/136/91 53/137/91
f 108/55/92 53/137/92 51/138/92
f 107/53/93 51/138/93 49/139/93
f 106/51/94 49/139/94 47/140/94
f 105/49/95 47/140/95 45/141/95
f 104/47/96 45/141/96 43/142/96
f 103/45/97 43/142/97 41/143/97
f 39/144/98 103/45/98 41/143/98
f 101/43/99 39/144/99 37/113/99
f 8/8/100 2/2/100 34/9/100
f 34/9/101 2/2/101 10/11/101
f 10/11/9 2/2/9 36/12/9
f 36/12/10 2/2/10 12/14/10
f 31/34/30 2/2/30 35/35/30
f 35/35/31 2/2/31 33/37/31
f 33/145/102 1/146/102 3/147/102
f 4/148/103 5/149/103 6/150/103
f 32/151/104 33/145/104 31/152/104
f 3/147/105 4/148/105 8/40/105
f 6/150/106 7/153/106 8/40/106
f 9/154/107 10/155/107 11/156/107
f 4/148/108 6/150/108 8/40/108
f 8/40/109 9/154/109 11/156/109
f 11/156/110 12/157/110 13/158/110
f 14/159/111 15/160/111 16/38/111
f 11/156/112 13/158/112 8/40/112
f 3/147/113 8/40/113 31/152/113
f 31/152/114 33/145/114 3/147/114
f 29/161/115 30/162/115 28/163/115
f 26/164/116 27/165/116 28/163/116
f 28/163/117 30/162/117 31/152/117
f 31/152/118 8/40/118 26/164/118
f 13/158/119 14/159/119 8/40/119
f 16/38/120 17/166/120 19/167/120
f 17/166/121 18/168/121 19/167/121
f 8/40/122 14/159/122 16/38/122
f 26/164/123 28/163/123 31/152/123
f 24/169/124 25/170/124 26/164/124
f 22/39/125 23/171/125 24/169/125
f 20/172/126 21/173/126 22/39/126
f 16/38/127 19/167/127 22/39/127
f 26/164/128 8/40/128 22/39/128
f 22/39/129 24/169/129 26/164/129
f 19/167/130 20/172/130 22/39/130
f 38/41/34 40/44/34 102/42/34
f 40/44/35 42/46/35 103/45/35
f 42/46/36 44/48/36 104/47/36
f 44/48/37 46/50/37 105/49/37
f 46/50/38 48/52/38 106/51/38
f 48/52/39 50/54/39 107/53/39
f 50/54/40 52/56/40 108/55/40
f 52/56/41 54/58/41 109/57/41
f 54/58/42 56/60/42 110/59/42
f 56/60/43 58/62/43 111/61/43
f 58/62/44 60/64/44 112/63/44
f 60/64/45 62/66/45 113/65/45
f 62/66/46 64/68/46 114/67/46
f 64/68/47 66/70/47 115/69/47
f 66/70/48 68/72/48 116/71/48
f 68/72/49 70/74/49 117/73/49
f 70/74/50 72/76/50 118/75/50
f 72/76/51 74/78/51 119/77/51
f 74/78/52 76/80/52 120/79/52
f 76/80/53 78/82/53 121/81/53
f 78/82/54 80/84/54 122/83/54
f 80/84/55 82/86/55 123/85/55
f 82/86/56 84/88/56 124/87/56
f 84/88/57 86/90/57 125/89/57
f 86/90/58 88/92/58 126/91/58
f 88/92/59 90/174/59 127/93/59
f 90/94/60 92/97/60 128/95/60
f 92/97/61 94/99/61 129/98/61
f 94/99/62 96/101/62 130/100/62
f 96/101/63 98/106/63 131/102/63
f 42/105/64 40/175/64 38/176/64
f 38/176/64 100/177/64 42/105/64
f 98/178/64 96/179/64 94/180/64
f 94/180/64 92/181/64 90/182/64
f 90/182/64 88/183/64 86/184/64
f 86/184/64 84/185/64 90/182/64
f 82/186/64 80/187/64 74/188/64
f 78/189/131 76/190/131 74/188/131
f 74/188/64 72/191/64 70/192/64
f 70/192/64 68/193/64 74/188/64
f 66/103/64 64/194/64 62/195/64
f 62/195/64 60/196/64 58/104/64
f 58/104/64 56/197/64 54/198/64
f 54/198/64 52/199/64 50/200/64
f 50/200/64 48/201/64 46/202/64
f 46/202/64 44/203/64 50/200/64
f 42/105/64 100/177/64 98/178/64
f 98/178/64 94/180/64 42/105/64
f 90/182/64 84/185/64 82/186/64
f 80/187/64 78/189/64 74/188/64
f 74/188/64 68/193/64 66/103/64
f 66/103/64 62/195/64 58/104/64
f 58/104/64 54/198/64 42/105/64
f 50/200/64 44/203/64 42/105/64
f 42/105/64 94/180/64 90/182/64
f 90/182/64 82/186/64 74/188/64
f 74/188/64 66/103/64 42/105/64
f 54/198/64 50/200/64 42/105/64
f 42/105/64 90/182/64 74/188/64
f 98/106/65 100/108/65 132/107/65
f 100/108/66 38/41/66 101/43/66
f 99/111/67 37/204/67 39/205/67
f 39/205/67 41/206/67 43/207/67
f 43/207/67 45/208/67 47/209/67
f 47/209/67 49/210/67 43/207/67
f 51/211/67 53/212/67 55/213/67
f 55/213/67 57/214/67 59/215/67
f 59/215/67 61/216/67 63/217/67
f 63/217/67 65/218/67 67/109/67
f 67/109/67 69/219/67 71/220/67
f 71/220/67 73/221/67 75/222/67
f 75/222/67 77/223/67 79/224/67
f 79/224/67 81/225/67 75/222/67
f 83/226/67 85/227/67 87/228/67
f 87/228/67 89/229/67 91/110/67
f 91/110/67 93/230/67 99/111/67
f 95/231/67 97/232/67 99/111/67
f 99/111/67 39/205/67 43/207/67
f 43/207/67 49/210/67 51/211/67
f 51/211/67 55/213/67 67/109/67
f 59/215/67 63/217/67 67/109/67
f 67/109/67 71/220/67 83/226/67
f 75/222/67 81/225/67 83/226/67
f 83/226/67 87/228/67 91/110/67
f 93/230/67 95/231/67 99/111/67
f 99/111/67 43/207/67 67/109/67
f 55/213/67 59/215/67 67/109/67
f 71/220/67 75/222/67 83/226/67
f 83/226/67 91/110/67 67/109/67
f 43/207/67 51/211/67 67/109/67
f 99/112/68 132/107/68 101/43/68
f 97/114/69 131/102/69 132/107/69
f 95/115/70 130/100/70 131/102/70
f 129/98/71 130/100/71 95/115/71
f 128/95/72 129/98/72 93/116/72
f 127/96/73 128/95/73 91/117/73
f 126/91/74 127/93/74 89/119/74
f 125/89/75 126/91/75 87/120/75
f 124/87/76 125/89/76 85/121/76
f 123/85/77 124/87/77 83/122/77
f 122/83/78 123/85/78 81/123/78
f 121/81/79 122/83/79 79/124/79
f 120/79/80 121/81/80 77/125/80
f 119/77/81 120/79/81 75/126/81
f 118/75/82 119/77/82 73/127/82
f 117/73/83 118/75/83 71/128/83
f 67/130/84 116/71/84 117/73/84
f 65/131/85 115/69/85 116/71/85
f 114/67/86 115/69/86 65/131/86
f 61/133/87 113/65/87 114/67/87
f 112/63/88 113/65/88 61/133/88
f 111/61/89 112/63/89 59/134/89
f 110/59/90 111/61/90 57/135/90
f 109/57/91 110/59/91 55/136/91
f 108/55/92 109/57/92 53/137/92
f 107/53/93 108/55/93 51/138/93
f 106/51/94 107/53/94 49/139/94
f 105/49/95 106/51/95 47/140/95
f 104/47/96 105/49/96 45/141/96
f 103/45/97 104/47/97 43/142/97
f 39/144/98 102/42/98 103/45/98
f 101/43/99 102/42/99 39/144/99
